<svg width="0" height="0" class="hidden">
  <symbol fill="none" xmlns="http://www.w3.org/2000/svg" viewBox="0 0 12 20" id="facebook_icon-white">
    <path d="M8.46 0C5.456 0 3.4 1.656 3.4 4.7v2.622H0v3.556h3.399V20H7.46v-9.122h3.39l.509-3.556H7.46V5.05c0-1.03.317-1.731 1.951-1.731h2.083V.14A30.794 30.794 0 008.46 0z" fill="#fff"></path>
  </symbol>
  <symbol fill="none" xmlns="http://www.w3.org/2000/svg" viewBox="0 0 21 20" id="instagram_icon-white">
    <path d="M5.846 0C2.622 0 0 2.604 0 5.804v8.393C0 17.397 2.622 20 5.846 20h8.505c3.224 0 5.846-2.603 5.846-5.803V5.804c0-3.2-2.622-5.804-5.846-5.804H5.846zm0 1.72h8.505c2.295 0 4.115 1.807 4.115 4.084v8.393c0 2.278-1.82 4.084-4.115 4.084H5.846c-2.295 0-4.114-1.806-4.114-4.084V5.804c0-2.277 1.82-4.085 4.114-4.085zm9.673 1.719c-.67 0-1.211.538-1.211 1.202 0 .664.542 1.202 1.21 1.202.67 0 1.212-.538 1.212-1.202 0-.664-.542-1.202-1.211-1.202zm-5.42 1.412C7.243 4.85 4.91 7.166 4.91 10s2.333 5.15 5.188 5.15c2.854 0 5.188-2.316 5.188-5.15 0-2.834-2.334-5.15-5.189-5.15zm0 1.719A3.43 3.43 0 0113.554 10a3.43 3.43 0 01-3.457 3.43A3.43 3.43 0 016.643 10a3.43 3.43 0 013.455-3.43z" fill="#fff"></path>
  </symbol>
  <symbol fill="none" xmlns="http://www.w3.org/2000/svg" viewBox="0 0 26 20" id="twitter_icon-white">
    <path d="M25.759 2.367c-.947.402-1.966.673-3.035.796 1.09-.626 1.928-1.615 2.323-2.794-1.02.58-2.151.999-3.356 1.225A5.394 5.394 0 0017.834 0c-2.918 0-5.284 2.26-5.284 5.049 0 .396.047.781.137 1.15C8.295 5.99 4.401 3.98 1.795.925a4.853 4.853 0 00-.716 2.538c0 1.752.933 3.297 2.351 4.203a5.444 5.444 0 01-2.393-.632l-.001.064c0 2.447 1.821 4.487 4.239 4.951a5.517 5.517 0 01-2.387.086c.673 2.006 2.624 3.466 4.937 3.507a10.925 10.925 0 01-6.564 2.161c-.426 0-.847-.024-1.261-.07A15.473 15.473 0 008.101 20c9.72 0 15.035-7.693 15.035-14.366 0-.219-.005-.436-.015-.653a10.51 10.51 0 002.637-2.614" fill="#fff"></path>
  </symbol>
</svg>