<svg width="0" height="0" class="hidden">
  <symbol fill="none" xmlns="http://www.w3.org/2000/svg" viewBox="0 0 52 52" id="bouquet">
    <g clip-path="url(#clip0)" fill="#AE7C78">
      <path d="M35.702 13.899a3.992 3.992 0 003.26-1.658l3.827-5.27a.762.762 0 00-.491-1.2 24.533 24.533 0 00-3.402-.277 24.703 24.703 0 00-1.317-3.15.761.761 0 00-1.292-.096l-3.827 5.27a3.992 3.992 0 00-.718 2.99 3.99 3.99 0 00.994 2.074 58.13 58.13 0 00-2.718 3.5v-.666a.762.762 0 10-1.523 0v2.91a36.789 36.789 0 00-1.733 2.996v-5.59l2.219-2.22a.762.762 0 10-1.077-1.077l-1.143 1.142V11.22a4.024 4.024 0 003.257-3.945V.762A.762.762 0 0028.916.08 24.65 24.65 0 0026 1.855 24.698 24.698 0 0023.084.08a.762.762 0 00-1.103.682v6.513a4.024 4.024 0 003.257 3.945v3.986l-1.956-1.957a.762.762 0 00-1.078 1.077l3.034 3.034v3.962c-1.943-3.79-4.825-7.375-5.974-8.74a3.99 3.99 0 00.993-2.073 3.992 3.992 0 00-.717-2.99l-3.827-5.27a.761.761 0 00-1.293.096c-.032.062-.73 1.413-1.317 3.149a24.6 24.6 0 00-3.401.278.762.762 0 00-.492 1.199l3.827 5.27a3.992 3.992 0 002.622 1.607 3.972 3.972 0 002.38-.352c.236.28.561.674.946 1.159h-.669a.762.762 0 000 1.523h1.84c1.113 1.496 2.403 3.38 3.452 5.322a25.061 25.061 0 00-4.12-3.266c-4.561-2.903-8.671-3.545-8.844-3.571a.762.762 0 00-.875.753c0 .122.017 3.029 1.47 7.076 1.312 3.654 4.098 8.961 9.928 13.643v2.791l-3.23 12.116a.761.761 0 00.735.958h14.655a.762.762 0 00.736-.958l-3.231-12.116v-2.79c5.83-4.683 8.617-9.99 9.928-13.644 1.453-4.047 1.47-6.954 1.47-7.076a.762.762 0 00-.875-.753c-.1.015-2.507.387-5.676 1.846-2.076.955-4.771 2.528-7.294 5.004 1.05-1.947 2.343-3.835 3.459-5.335h1.839a.762.762 0 000-1.523h-.668c.384-.485.71-.878.944-1.159a3.974 3.974 0 001.743.403zm5.095-6.777l-1.15 1.584a12.418 12.418 0 00-.3-1.677c.536.018 1.033.054 1.45.093zM12.353 8.706l-1.15-1.584c.416-.04.912-.075 1.45-.093a12.417 12.417 0 00-.3 1.677zm5.402 3.192c-.54.392-1.2.55-1.857.446a2.478 2.478 0 01-1.628-.998c-1.092-1.504.066-5.058.968-7.158l3.07 4.225a2.498 2.498 0 01-.553 3.485zm10.74-9.843v1.954c-.35-.389-.76-.782-1.229-1.178.445-.3.868-.563 1.228-.776zm-4.99 5.22V2.053c1.964 1.168 4.99 3.363 4.99 5.222A2.498 2.498 0 0126 9.77a2.498 2.498 0 01-2.495-2.495zM12.696 22.042c-.901-2.49-1.224-4.543-1.34-5.675 1.421.346 4.275 1.218 7.315 3.152a23.057 23.057 0 016.355 5.96c1.965 2.722 3.347 5.924 4.116 9.529h-1.774c-.974-4.273-2.891-7.91-5.705-10.818a.762.762 0 10-1.095 1.06c2.543 2.627 4.3 5.907 5.234 9.758h-3.605c-5.58-4.455-8.246-9.5-9.5-12.966zm16.612 14.49v1.732h-6.617v-1.733h6.617zm3.027 13.945H29.11l-.129-.967a.762.762 0 10-1.51.2l.102.766h-7.908l2.85-10.688h3.633l.889 6.666a.762.762 0 101.51-.201l-.862-6.465h1.801l2.85 10.689zm3.933-32.562a24.291 24.291 0 014.374-1.547c-.115 1.132-.438 3.184-1.339 5.675-1.196 3.305-3.675 8.044-8.74 12.34-.732-3.275-1.954-6.235-3.642-8.83 2.928-4.085 6.682-6.405 9.347-7.638zm-2.576-9.502l3.07-4.225c.902 2.098 2.062 5.65.967 7.158-.391.539-.97.893-1.627.998a2.478 2.478 0 01-1.857-.446 2.498 2.498 0 01-.553-3.485z"></path>
      <path d="M19.133 21.956a22.565 22.565 0 00-1.684-1.151.762.762 0 10-.803 1.294c.54.335 1.068.696 1.57 1.074a.758.758 0 001.067-.15.762.762 0 00-.15-1.067z"></path>
    </g>
    <defs>
      <clipPath id="clip0">
        <path fill="#fff" d="M0 0h52v52H0z"></path>
      </clipPath>
    </defs>
  </symbol>
  <symbol fill="none" xmlns="http://www.w3.org/2000/svg" viewBox="0 0 70 52" id="card">
    <path d="M22.002 14.733H10.245a2.574 2.574 0 00-2.571 2.571v9.282a2.574 2.574 0 002.57 2.572h11.758a2.574 2.574 0 002.572-2.572v-9.282a2.574 2.574 0 00-2.572-2.571zm.523 2.571v3.617h-5.377v-4.14h4.854c.288 0 .523.235.523.523zM9.722 26.586v-9.282c0-.288.235-.522.523-.522h4.854v10.327h-4.854a.523.523 0 01-.523-.523zm12.28.523h-4.854v-4.14h5.377v3.617a.523.523 0 01-.523.523zM7.674 40.992c0 .566.458 1.024 1.024 1.024H38.84a1.024 1.024 0 100-2.048H8.698c-.566 0-1.024.458-1.024 1.024zm1.024 2.877a1.024 1.024 0 100 2.049h15.071a1.024 1.024 0 100-2.05H8.698zm18.191-7.764v-2.476a1.024 1.024 0 10-2.049 0v2.476a1.024 1.024 0 102.049 0zm4.682 0v-2.476a1.024 1.024 0 10-2.049 0v2.476a1.024 1.024 0 102.05 0zm4.682 0v-2.476a1.024 1.024 0 10-2.049 0v2.476a1.024 1.024 0 102.049 0zm4.682 0v-2.476a1.024 1.024 0 10-2.049 0v2.476a1.024 1.024 0 102.049 0zm5.755-2.476v2.476a1.024 1.024 0 002.048 0v-2.476a1.024 1.024 0 10-2.049 0zm4.681 0v2.476a1.024 1.024 0 002.049 0v-2.476a1.024 1.024 0 10-2.049 0zm4.682 0v2.476a1.024 1.024 0 002.049 0v-2.476a1.024 1.024 0 10-2.05 0zM8.698 37.13c.566 0 1.024-.46 1.024-1.025v-2.476a1.024 1.024 0 10-2.048 0v2.476c0 .566.458 1.024 1.024 1.024zm5.706-1.025v-2.476a1.024 1.024 0 10-2.049 0v2.476a1.024 1.024 0 002.05 0zm4.682 0v-2.476a1.024 1.024 0 10-2.049 0v2.476a1.024 1.024 0 002.049 0z" fill="#AE7C78"></path>
    <path d="M69.928 10.406C69.928 4.668 65.259 0 59.52 0c-5.14 0-9.418 3.746-10.255 8.65H22.761a1.024 1.024 0 100 2.05h26.358c.157 5.638 4.81 10.11 10.398 10.113h.004c.002 0 0 0 0 0h.004c1.496 0 2.947-.33 4.202-.885v17.226a1.024 1.024 0 102.048 0V18.718a10.396 10.396 0 004.153-8.312zM59.52 2.05c4.609 0 8.358 3.749 8.358 8.357 0 4.618-3.76 8.358-8.358 8.358-4.698 0-8.54-3.91-8.349-8.696a8.365 8.365 0 018.35-8.02z" fill="#AE7C78"></path>
    <path d="M56.688 14.349a1.024 1.024 0 001.596.186l6.625-6.625a1.024 1.024 0 00-1.449-1.45l-5.71 5.71-2.208-3.58a1.025 1.025 0 00-1.744 1.077l2.89 4.682zM64.75 40.91c-.565 0-1.023.458-1.023 1.024v4.225a3.797 3.797 0 01-3.793 3.793H5.842a3.797 3.797 0 01-3.793-3.793V14.492A3.797 3.797 0 015.842 10.7H17.98a1.024 1.024 0 100-2.048H5.842A5.848 5.848 0 000 14.492v31.666A5.848 5.848 0 005.842 52h54.091a5.848 5.848 0 005.842-5.842v-4.224c0-.566-.459-1.024-1.024-1.024z" fill="#AE7C78"></path>
    <path d="M59.34 27.583v-3.028c0-.868-.706-1.575-1.574-1.575h-10.46c-.869 0-1.575.707-1.575 1.575v3.028c0 .868.706 1.575 1.574 1.575h10.46c.87 0 1.576-.707 1.576-1.575zm-2.048-.474H47.78v-2.08h9.513v2.08z" fill="#AE7C78"></path>
  </symbol>
  <symbol fill="none" xmlns="http://www.w3.org/2000/svg" viewBox="0 0 82 52" id="delivery">
    <path d="M80.666 24.006c-.852-1.019-2.015-1.68-3.348-1.928l-.626-8.52a1.285 1.285 0 001.252-1.064l.241-1.373c.26-1.471-.102-2.924-.99-3.985-.887-1.06-2.187-1.644-3.658-1.644H64.11l.459-2.609a2.48 2.48 0 00-.518-2.029A2.43 2.43 0 0062.177 0H15.78c-1.372 0-2.635 1.07-2.875 2.437L8.8 25.777a1.287 1.287 0 001.266 1.51c.611 0 1.153-.44 1.263-1.064l4.105-23.34c.027-.153.224-.309.346-.309h46.238l-4.081 23.203a1.285 1.285 0 102.529.447l.295-1.683h15.357c1.062 0 1.978.398 2.582 1.119.416.497.659 1.115.717 1.798H75.15c-.623 0-1.156.449-1.264 1.064l-.483 2.746c-.195 1.106.08 2.202.754 3.007.664.794 1.672 1.25 2.766 1.25h1.209l-.996 5.663h-3.39a6.766 6.766 0 00-1.451-3.059c-1.314-1.569-3.246-2.433-5.441-2.433-3.52 0-6.917 2.31-8.506 5.492h-.516l1.666-9.473a1.284 1.284 0 10-2.529-.447l-1.745 9.92H31.458a6.766 6.766 0 00-1.452-3.058c-1.313-1.57-3.245-2.434-5.44-2.434-3.521 0-6.917 2.31-8.507 5.492H8.695l.514-2.917h5.77c.709 0 1.284-.577 1.284-1.287 0-.711-.575-1.288-1.284-1.288H1.284c-.709 0-1.284.577-1.284 1.288 0 .71.575 1.287 1.284 1.287h5.317l-.459 2.608c-.13.74.059 1.48.518 2.029a2.43 2.43 0 001.875.855h6.69c-.348 2.183.175 4.24 1.485 5.804C18.023 51.136 19.955 52 22.15 52c4.37 0 8.55-3.556 9.32-7.928.018-.104.032-.207.047-.31h25.998c-.348 2.184.175 4.24 1.484 5.805C60.312 51.136 62.245 52 64.44 52c4.37 0 8.55-3.557 9.32-7.929.017-.103.032-.206.046-.309h4.408c.624 0 1.157-.448 1.265-1.063l2.415-13.73c.327-1.864-.108-3.626-1.228-4.963zm-19.453-2.039l1.48-8.41h11.424l.618 8.41H61.213zm14.443-11.293l-.054.31H63.145l.513-2.918h9.879c.7 0 1.3.257 1.69.724.406.484.558 1.153.43 1.884zm-46.715 32.95c-.562 3.2-3.609 5.802-6.79 5.802-1.424 0-2.657-.538-3.474-1.514-.84-1.004-1.161-2.368-.902-3.84.562-3.199 3.609-5.8 6.79-5.8 1.423 0 2.657.537 3.474 1.513.84 1.004 1.161 2.368.902 3.84zm42.29 0c-.563 3.2-3.61 5.802-6.791 5.802-1.423 0-2.657-.538-3.474-1.514-.84-1.004-1.16-2.368-.902-3.84.563-3.199 3.609-5.801 6.79-5.801 1.424 0 2.658.538 3.475 1.514.84 1.004 1.16 2.368.902 3.84zm7.355-10.673h-1.662c-.343 0-.619-.114-.8-.33-.187-.224-.255-.545-.192-.905l.296-1.683h2.87l-.512 2.918z" fill="#AE7C78"></path>
    <path d="M25.475 42.043a2.43 2.43 0 00-1.875-.855c-1.372 0-2.635 1.07-2.876 2.437-.13.74.059 1.48.518 2.029a2.43 2.43 0 001.875.854c1.372 0 2.635-1.07 2.875-2.436.13-.741-.058-1.48-.517-2.03zm42.289 0a2.43 2.43 0 00-1.875-.855c-1.372 0-2.635 1.07-2.875 2.437-.13.74.058 1.48.517 2.029a2.43 2.43 0 001.875.854c1.372 0 2.635-1.07 2.875-2.436.13-.741-.058-1.48-.517-2.03zM51.79 35.697H35.521a1.286 1.286 0 000 2.574h16.27c.708 0 1.283-.576 1.283-1.287s-.575-1.288-1.284-1.288zm-23.116-5.492H4.989a1.286 1.286 0 000 2.574h23.685a1.286 1.286 0 000-2.574zm24.518-5.179l-4.753-4.119a1.282 1.282 0 00-1.811.133 1.29 1.29 0 00.132 1.815l2.144 1.858H16.348c-.709 0-1.284.576-1.284 1.287s.575 1.288 1.284 1.288H48.09l-2.648 1.758a1.289 1.289 0 00.71 2.36c.244 0 .49-.069.708-.214l6.203-4.119a1.287 1.287 0 00.13-2.047z" fill="#AE7C78"></path>
  </symbol>
  <symbol fill="none" xmlns="http://www.w3.org/2000/svg" viewBox="0 0 38 52" id="florist">
    <path d="M35.216 37.254c-.685-3.433-3.906-4.018-3.916-4.023-.035-.01.295.073-7.855-1.947v-.277h6a2.245 2.245 0 002.242-2.242V17.322a2.801 2.801 0 000-1.294v-4.176a.762.762 0 10-1.523 0v2.186a3.957 3.957 0 00-1.357-.498 1.987 1.987 0 00-1.674-1.53c-.872-.115-1.532-.624-1.963-1.511a1.297 1.297 0 00-1.058-.73 1.293 1.293 0 00-1.17.526c-1.309 1.783-4.95 5.78-11.236 5.78-.478 0-.802-.023-.915-.028a2.015 2.015 0 00-2.132 2.011v1.75c0 2.798 1.16 5.51 3.184 7.442a10.19 10.19 0 002.201 1.6v.634H8.072a.72.72 0 01-.72-.72V11.647c0-5.55 4.525-10.122 9.991-10.122h.053c1.959.01 4.22.567 5.76 1.417.977.539 1.58.11 2.544.11 2.354 0 4.24 2.42 4.466 4.597a22 22 0 01.006.649c0 .735.83.792.762.761.42 0 .762-.342.761-.762 0-.136.001-.666-.011-.79-.307-3.03-2.892-5.978-5.983-5.978-1.208 0-1.396.306-1.809.079C22.145.643 19.6.012 17.404 0 11.08-.04 5.83 5.228 5.83 11.646v17.119a2.245 2.245 0 002.243 2.242h5.972v.277l-7.824 1.94-.03.008-.573.168a.887.887 0 00-.05.017c-1.02.38-2.805 1.385-3.294 3.837C-.046 48.902.052 48.404.046 48.444-.234 50.42.756 52 3.135 52h8.238a.762.762 0 100-1.524H8.506v-7.185a.762.762 0 10-1.524 0v7.185H3.134c-1.011 0-1.6-.325-1.609-1.389-.004-.518-.025-.013 2.242-11.535.341-1.708 1.582-2.422 2.309-2.698l.528-.156 4.493-1.114c4.998 5.888 4.702 5.576 4.991 5.858 1.668 1.627 4.049 1.513 5.616-.327l4.704-5.527 4.476 1.11c.13.06 2.358.451 2.838 2.854 2.247 11.422 2.246 11.014 2.242 11.535-.008 1.041-.571 1.39-1.61 1.39h-3.82V43.29a.762.762 0 10-1.524 0v7.185H14.928a.762.762 0 100 1.524h19.426c1.883 0 3.116-1.036 3.133-2.9.007-.872-.045-.456-2.271-11.846zm-6.36-22.142c.637.19 1.128.609 1.308 1.126v.873c-.18.518-.67.937-1.307 1.127v-3.126zm0 4.83V19.8a3.945 3.945 0 001.308-.488v9.453a.72.72 0 01-.72.719h-6v-.589a10.085 10.085 0 005.413-8.954zm-15.96 6.206a8.803 8.803 0 01-2.713-6.34c.045-1.659-.11-1.86.155-2.109a.48.48 0 01.361-.131c5.463.329 10.161-2.073 13.263-6.093.837 1.468 2.063 1.925 2.972 2.045.228.03.4.224.4.451v5.97c0 7.58-9.076 11.325-14.439 6.207zm7.647 11.979c-1.061 1.247-2.547 1.243-3.606-.007l-1.59-1.876h6.799l-1.603 1.883zm2.9-3.406h-9.386l-1.31-1.546 2.242-.555a.77.77 0 00.579-.747v-2.357a10.09 10.09 0 006.353.021c.014 2.435-.033 2.38.042 2.594a.762.762 0 00.536.488l2.257.56-1.313 1.542z" fill="#AE7C78"></path>
  </symbol>
  <symbol fill="none" xmlns="http://www.w3.org/2000/svg" viewBox="0 0 59 52" id="foto">
    <path d="M51.68 9.19h-2.722a.858.858 0 100 1.716h2.721a.858.858 0 100-1.717zm-15.273 4.14c-4.8 0-8.705 3.906-8.705 8.708 0 4.8 3.905 8.704 8.705 8.704 4.801 0 8.707-3.905 8.707-8.704 0-4.802-3.906-8.708-8.707-8.708zm0 15.696a6.996 6.996 0 01-6.988-6.988c0-3.855 3.135-6.992 6.988-6.992a6.999 6.999 0 016.99 6.992c0 3.853-3.136 6.988-6.99 6.988z" fill="#AE7C78"></path>
    <path d="M55.381 4.606H44.954l-1.01-2.79C43.782 1.367 43.286 0 41.887 0H28.534c-1.4 0-1.894 1.367-2.057 1.817l-1.01 2.79h-8.49V2.53c0-1.13-.92-2.05-2.05-2.05h-3.823a2.05 2.05 0 00-2.046 2.05v2.112a3.221 3.221 0 00-2.726 3.18V25.38l-3.889.755a3.023 3.023 0 00-2.387 3.54L3.91 49.557a3.03 3.03 0 003.54 2.387l8.383-1.626a.858.858 0 10-.327-1.686L7.124 50.26a1.308 1.308 0 01-1.53-1.03L1.742 29.347a1.305 1.305 0 011.03-1.527l20.904-4.055c.339-.065.685.006.975.202.29.196.485.49.55.831l3.858 19.88a1.304 1.304 0 01-1.03 1.527l-8.387 1.627a.859.859 0 00.326 1.685l8.388-1.627a3.023 3.023 0 002.387-3.54L29.7 38.975h9.581a.858.858 0 100-1.717h-9.914l-.904-4.662a13.215 13.215 0 007.944 2.657c5.728 0 10.616-3.662 12.447-8.767h8.026v9.271a1.5 1.5 0 01-1.498 1.501H43.484a.858.858 0 100 1.717H55.38a3.22 3.22 0 003.215-3.218V7.824a3.22 3.22 0 00-3.215-3.218zm-27.29-2.205c.164-.454.313-.684.443-.684h13.353c.161 0 .33.372.443.684l.798 2.205H27.293l.798-2.205zm-4.899 19.637l.001.072-6.216 1.206v-4.01h6.5a13.227 13.227 0 00-.285 2.732zM10.774 2.53c0-.18.151-.333.33-.333h3.824c.183 0 .332.15.332.333v2.075h-4.486V2.531zM8.05 7.824a1.5 1.5 0 011.497-1.501h5.714v17.325l-2.905.564v-9.68c0-.825-.671-1.496-1.496-1.496H8.05V7.824zm0 6.929h2.589v9.792l-2.59.502V14.753zm28.358 18.783a11.501 11.501 0 01-8.489-3.744l-1.032-5.32a2.995 2.995 0 00-1.275-1.927 3.05 3.05 0 00-.7-.352l-.002-.155c0-6.342 5.158-11.502 11.497-11.502 6.342 0 11.502 5.16 11.502 11.502 0 6.34-5.16 11.498-11.501 11.498zm20.472-8.767h-7.54a13.215 13.215 0 000-5.463h7.54v5.463zm0-7.18h-8.026c-1.83-5.106-6.718-8.77-12.446-8.77-5.727 0-10.614 3.664-12.444 8.77h-6.986V6.324H55.38a1.5 1.5 0 011.498 1.5v9.767z" fill="#AE7C78"></path>
    <path d="M26.002 43.462c.201-.3.275-.653.207-.99L23.29 27.813c-.155-.766-.955-1.235-1.823-1.068L5.546 29.833c-.87.168-1.438.905-1.289 1.684l2.919 14.649c.064.339.265.637.564.84.262.177.583.27.917.27.113 0 .229-.01.343-.032l15.92-3.089c.45-.087.845-.34 1.082-.693zM7.64 39.66l-1.636-8.167 15.666-3.038.95 4.776-2.008.39c-3.831.743-5.103 1.89-6.333 3-1.191 1.074-2.422 2.183-6.64 3.04zm1.163 5.873l-.4-2.062-.426-2.128c4.684-.953 6.151-2.275 7.452-3.448 1.152-1.04 2.147-1.937 5.51-2.589l2.016-.392 1.509 7.581-15.661 3.038z" fill="#AE7C78"></path>
  </symbol>
  <symbol fill="none" xmlns="http://www.w3.org/2000/svg" viewBox="0 0 67 52" id="order">
    <path d="M54.683 39.485h4.172a.968.968 0 00.968-.968V5.139a.968.968 0 00-.968-.968H7.226a.968.968 0 00-.968.968v33.378c0 .534.434.968.968.968h42.927a.968.968 0 100-1.936H8.194V6.107h49.693V37.55h-3.204a.968.968 0 100 1.936z" fill="#AE7C78"></path>
    <path d="M65.113 41.72h-1.118V3.575A3.58 3.58 0 0060.42 0H15.538a.968.968 0 000 1.936h44.88c.905 0 1.641.735 1.641 1.64V41.72H4.022V3.575c0-.904.736-1.639 1.64-1.639h5.351a.968.968 0 100-1.936H5.662a3.58 3.58 0 00-3.576 3.575V41.72H.968a.968.968 0 00-.968.968v5.215A4.101 4.101 0 004.096 52h4.751a.968.968 0 100-1.936h-4.75a2.163 2.163 0 01-2.161-2.16v-4.248H25.81l.52 1.663a3.56 3.56 0 003.412 2.51h6.596a3.56 3.56 0 003.413-2.51l.52-1.663h23.874v4.248c0 1.19-.97 2.16-2.16 2.16H13.376a.968.968 0 100 1.936h48.607a4.101 4.101 0 004.097-4.096v-5.216a.968.968 0 00-.968-.968zm-27.21 3.022a1.632 1.632 0 01-1.565 1.15h-6.596c-.72 0-1.35-.462-1.564-1.15l-.34-1.086h10.405l-.34 1.086z" fill="#AE7C78"></path>
    <path d="M24.305 23.317a.968.968 0 00.95-.778l1.173-5.867a.969.969 0 00-.95-1.157h-7.43a.968.968 0 100 1.936h6.25l-.786 3.93h-7.526l-1.29-7.029a.968.968 0 00-.951-.793h-2.347a.968.968 0 100 1.936h1.54l1.273 6.943v4.084c0 .534.434.968.968.968h.045a1.3 1.3 0 001.259 1.64c.59 0 1.089-.394 1.25-.932a1.303 1.303 0 00.017-.708h2.168l-.015.058a1.302 1.302 0 001.274 1.581c.63 0 1.156-.448 1.277-1.043a1.31 1.31 0 00-.011-.596h.298a.968.968 0 100-1.936h-6.594v-2.236h8.158zm13.093-11.919a.968.968 0 00-.968-.968h-4.172a.968.968 0 00-.968.968v4.172c0 .535.434.968.968.968h4.172a.968.968 0 00.968-.968v-4.172zm-1.936 3.204h-2.236v-2.236h2.236v2.236zm5.14 1.936h8.866a.968.968 0 100-1.936h-8.866a.968.968 0 100 1.936zm0-4.172h14.08a.968.968 0 000-1.936h-14.08a.968.968 0 100 1.936zm-3.204 7.376a.968.968 0 00-.968-.968h-4.172a.968.968 0 00-.968.968v4.172c0 .535.434.968.968.968h4.172a.968.968 0 00.968-.968v-4.172zm-1.936 3.204h-2.236V20.71h2.236v2.236zm5.14 1.936h8.866a.968.968 0 100-1.936h-8.866a.968.968 0 100 1.936zm0-4.172h14.08a.968.968 0 100-1.936h-14.08a.968.968 0 100 1.936zm-4.172 6.408h-4.172a.968.968 0 00-.968.968v4.172c0 .535.434.968.968.968h4.172a.968.968 0 00.968-.968v-4.172a.968.968 0 00-.968-.968zm-.968 4.172h-2.236v-2.236h2.236v2.236zm5.14 0a.968.968 0 100 1.936h8.866a.968.968 0 100-1.936h-8.866zm15.048-3.204a.968.968 0 00-.967-.968h-14.08a.968.968 0 100 1.936h14.08a.968.968 0 00.968-.968z" fill="#AE7C78"></path>
  </symbol>
</svg>