<svg width="0" height="0" class="arrow">
  <symbol fill="none" xmlns="http://www.w3.org/2000/svg" viewBox="0 0 51 16" id="arrow_left">
    <path d="M.293 8.707a1 1 0 010-1.414L6.657.929A1 1 0 018.07 2.343L2.414 8l5.657 5.657a1 1 0 11-1.414 1.414L.293 8.707zM51 9H1V7h50v2z" fill="#AE7C78"></path>
  </symbol>
  <symbol fill="none" xmlns="http://www.w3.org/2000/svg" viewBox="0 0 51 16" id="arrow_right">
    <path d="M50.707 8.707a1 1 0 000-1.414L44.343.929a1 1 0 10-1.414 1.414L48.586 8l-5.657 5.657a1 1 0 001.414 1.414l6.364-6.364zM0 9h50V7H0v2z" fill="#AE7C78"></path>
  </symbol>
</svg>